<svg xmlns="http://www.w3.org/2000/svg" viewBox="0 0 676.64 146.02">
  <g id="Layer_2" data-name="Layer 2">
    <g id="Layer_1-2" data-name="Layer 1">
      <path d="M59.19,143.78c-.32-1.66,1.93-3.14,2.6-4.53a8.43,8.43,0,0,1,2-2.72,19.5,19.5,0,0,0,2.64-3.23,25,25,0,0,1,3.88-4.94c.78-.75,1.76-1.28,2.52-2,1-1,1.87-2,2.9-2.92,2.4-2.21,4.76-4.6,7-7a65.12,65.12,0,0,0,5-5.66c2.84-3.84,5.85-7.67,7.71-12.12,1.32-3.15,2.58-6.32,4-9.41A7.4,7.4,0,0,0,100,86.9c.36-2.81.81-5.57,1.33-8.37s.7-5.85,1.11-8.79c.35-2.55,1-5,1.52-7.56.41-2.11.38-4.24.6-6.37.33-3.06.59-6.08.72-9.15.23-5.41.54-10.85.86-16.24.22-3.82.36-7.56.4-11.4a53,53,0,0,0-1.3-10.62c-.2-1.05-.58-1.23-1.72-1.41-3.31-.55-6.67-.64-10-1.36C81.2,3,69,0,56.32,0,50.76,0,45.23.41,39.67.46c-3.74,0-7.49,0-11.24,0a34.18,34.18,0,0,0-8.74.66A20.29,20.29,0,0,0,15.45,3c-2.21,1.19-4.4,2.36-6.64,3.49-.84.43-1.67.86-2.54,1.22a14.16,14.16,0,0,0-2.17.72c-1,.68-1.13,2.93-1.36,4.09C2,16.38,1.12,20.35.61,24.23c-1,7.53-.5,15.31-.5,22.89,0,2.32,0,4.63,0,6.94,0,3.46,1.17,6.42,1.86,9.76.16.79.57,1.46.72,2.24a13.69,13.69,0,0,1,0,2.48c0,1.78,0,3.57,0,5.36A62.17,62.17,0,0,0,4,88.17,60.68,60.68,0,0,0,7,96.5a68,68,0,0,0,3,6.91,70.94,70.94,0,0,0,3.83,6.06,38.33,38.33,0,0,0,3.78,5.33c1.47,1.59,2.77,3.27,4.1,5,1.56,2,3.63,3.57,5.42,5.37s3.55,4.09,5.49,6c1.39,1.34,3.49,2.14,5.23,3,2,1,3.65,2.61,5.71,3.58,1.35.63,2.8,1,4.14,1.55A31.49,31.49,0,0,1,50.74,141,7.8,7.8,0,0,0,55.29,142a10.44,10.44,0,0,1,5.2,1.74"/>
      <path d="M634.48,146c1.33-1.58,4.46-5.35,5.54-6.44a30.43,30.43,0,0,0,2.19-2.21,43.94,43.94,0,0,1,4-3.38c2.18-2,2.91-2,4.35-3.7.7-.83.91-.37,1.59-1.2.87-1.08,1.65-2.16,2.58-3.21,2.16-2.44,4.26-5.07,6.23-7.67a63.82,63.82,0,0,0,4.36-6.14c2.43-4.12,5-8.24,6.41-12.86,1-3.27,1.91-6.55,3-9.77a7.51,7.51,0,0,0,.43-2.38c.06-2.84.22-5.63.45-8.47s.09-5.89.19-8.86c.09-2.57.49-5.11.73-7.67.19-2.15-.06-4.26-.06-6.41,0-3.07,0-6.1-.24-9.17-.32-5.4-.58-10.84-.83-16.24-.17-3.82-.42-7.56-.78-11.37a53.88,53.88,0,0,0-2.39-10.44c-.31-1-.71-1.16-1.86-1.22-3.35-.2-6.7,0-10.08-.32-12.55-1.37-25-3-37.6-1.74-5.53.58-11,1.56-16.51,2.18-3.72.42-7.46.76-11.18,1.14A33.67,33.67,0,0,0,586.41,10a20.08,20.08,0,0,0-4,2.36c-2.07,1.42-4.13,2.81-6.24,4.17-.79.51-1.58,1-2.4,1.47a14.14,14.14,0,0,0-2.08.95c-.94.78-.82,3-.93,4.2-.36,3.9-.81,7.94-.9,11.85-.19,7.59,1.09,15.28,1.87,22.82.24,2.3.5,4.6.72,6.9.33,3.45,1.83,6.27,2.86,9.52.24.77.72,1.39,1,2.15a13.44,13.44,0,0,1,.29,2.46c.18,1.78.37,3.56.55,5.34a61.81,61.81,0,0,0,2.78,14,60.71,60.71,0,0,0,3.8,8,69.33,69.33,0,0,0,3.7,6.56c1.31,2,2.94,3.79,4.44,5.64a39.46,39.46,0,0,0,4.31,4.9c1.63,1.43,3.1,3,4.6,4.53a60.9,60.9,0,0,0,5.95,4.77c2.11,1.71,4,3.71,6.07,5.36,1.53,1.2,3.7,1.77,5.52,2.47,2.08.79,3.9,2.22,6,3,1.41.5,2.88.67,4.28,1.12A28.67,28.67,0,0,1,631.8,146c1.75.78-10.44-5.07-8.57-5.23s-.21-.63,9.14,2.44"/>
    </g>
  </g>
</svg>
