<svg xmlns="http://www.w3.org/2000/svg" viewBox="0 0 862.48 306.83">
  <g id="Layer_2" data-name="Layer 2">
    <g id="Layer_1-2" data-name="Layer 1">
      <path d="M293.82,104c-7.8-31.58-25.16-55.27-48.4-75.65-18-15.78-41-22.33-63.95-26.17C144.54-4,108.56,2.9,76.53,21.31,35.3,45,11.3,82.32,3,129.21c-1.58,8.91-3.46,18.1-2.84,27,2.2,31.11,10.29,60.72,27.36,87.2,26,40.3,61.36,64.61,113,63.13a13,13,0,0,0,3.64.24c16-1.74,33.08-.74,47.89-6,32-11.34,59.7-29.77,77.94-59.79,9.61-15.82,21.17-31.43,22.73-50C295.06,162.21,301.18,133.83,293.82,104ZM270,188.52c-3.31,15.51-15.49,34.81-25.85,47.24-15.42,18.5-31.31,26.74-55.49,42.89-16.07,10.74-30.25,10.34-44,10.74-2.6.07-5.11,0-5.21,0-37.67-3.66-72.71-18.62-94.91-54.13C29.86,211.92,31,190.52,29.08,163.11c-.54-7.85-1-18.54.33-26.39,7.11-41.33,14.17-74.28,59-95.95C117,26.92,144.45,17.25,176,22.7c19.62,3.39,39.26,9.16,54.64,23.07,19.86,17.95,38.56,29.21,43,63.66C278.31,139.65,275.25,163.62,270,188.52Z"/>
      <path d="M18.76,113.15h2.59c1.18,0,2.2-.38,3.34-.45s1.91-.37,2.92-.43,1.8,0,2.69,0c2.05,0,4.51-.34,6.54,0,1.06.19,2.15.55,3.19.83a18.42,18.42,0,0,0,5.19.43c4.36,0,9.29-.55,13.52.34,5.06,1.08,10.71.54,15.84.52a150.29,150.29,0,0,1,24.51,2.2c5.2.85,10.47,1.19,15.71,1.67,3.11.29,6.19.51,9.32.49,3.63,0,7.34-.2,11,.1,6.42.51,12.86.53,19.27,1.1,8.74.79,17.65-.25,26.41.14,7,.31,13.93.83,21,.83h21c4.27,0,8.72-.36,12.93.34a43.44,43.44,0,0,0,6.94.09h7.69c3.05,0,6.12-.09,9.17,0,1.77,0,3.44.84,5.21.89,2.05.06,4,.43,6.07.43a18.13,18.13,0,0,0,3.83-.1,11.75,11.75,0,0,1,2.66-.34c2.18,0,4.37,0,6.55,0l-1.3,25.63c-3.38,0-6.75,0-10.12,0-1.32,0-2.49-.38-3.78-.47s-2.64,0-4,0H253.36c-2.56,0-4.9-.33-7.44-.41-4.49-.15-8.95-1.2-13.41-1.32-2.77-.07-5.4-.88-8.18-.88-3.94,0-7.91.19-11.83-.1-3-.22-5.92-.35-8.93-.33a30.54,30.54,0,0,1-4-.46,70.72,70.72,0,0,0-7.84,0H165c-2.13,0-4.29.13-6.42,0-1.51-.07-2.88-.46-4.4-.45-2.89,0-5.77,0-8.66,0-6.58,0-12.93,1-19.45,1.64-1.41.14-2.73.46-4.11.58-2.22.21-5.44-.53-7.43-.83-4.57-.71-9.14-1.49-13.72-2.18-7.08-1.06-14.17-2-21.31-2.61a56.8,56.8,0,0,0-8.64-.45c-2.15.15-4.28.57-6.42.82-4.65.55-9.39.59-14.07.77-5.58.21-11.18.09-16.77.09H7Z"/>
      <path d="M590.28,121.77c.86-.06,1.72-.13,2.58-.18,1.18-.06,2.16-.53,3.3-.67s1.88-.5,2.89-.64,1.79-.1,2.67-.16c2.06-.14,4.49-.64,6.54-.41,1.06.12,2.18.4,3.23.61a18.19,18.19,0,0,0,5.21.09c4.35-.31,9.24-1.19,13.51-.58,5.13.73,10.73-.19,15.85-.56a150.84,150.84,0,0,1,24.6.53c5.24.5,10.53.48,15.78.61,3.13.07,6.21.09,9.33-.14,3.62-.27,7.32-.7,11-.65,6.43.08,12.87-.34,19.29-.2,8.78.19,17.6-1.45,26.37-1.65,7-.17,14-.12,21-.6l20.93-1.42c4.25-.28,8.67-.94,12.92-.53a43.47,43.47,0,0,0,6.93-.38l7.67-.52c3.05-.21,6.1-.51,9.15-.63,1.77-.07,3.49.6,5.26.54,2-.08,4,.15,6.08,0a18.67,18.67,0,0,0,3.82-.36,11.46,11.46,0,0,1,2.63-.52c2.18-.13,4.36-.29,6.53-.44l.44,25.66c-3.37.23-6.73.43-10.1.69-1.31.11-2.51-.21-3.8-.21s-2.63.2-3.93.29l-11.21.76c-2.55.18-4.91,0-7.45.1-4.49.16-9-.59-13.47-.4-2.77.11-5.44-.52-8.22-.33-3.93.27-7.88.73-11.81.7-3,0-5.93,0-8.93.28a31.37,31.37,0,0,1-4-.19,71,71,0,0,0-7.83.55l-14.64,1-12,.81c-2.13.15-4.28.42-6.41.46-1.5,0-2.91-.27-4.42-.16-2.88.22-5.76.4-8.64.59-6.56.42-12.83,1.87-19.3,2.95-1.39.23-2.69.64-4,.86-2.2.36-5.47-.16-7.47-.33-4.61-.39-9.22-.86-13.83-1.24-7.14-.58-14.28-1-21.44-1.16a55.62,55.62,0,0,0-8.66.14c-2.13.29-4.23.85-6.34,1.25-4.61.86-9.34,1.22-14,1.72-5.55.59-11.14.84-16.72,1.22l-11.68.79-14.83,1Z"/>
      <path d="M859,104c-7.8-31.58-25.16-55.27-48.4-75.65-18-15.78-41-22.33-64-26.17C709.69-4,673.7,2.9,641.68,21.31c-41.24,23.71-65.23,61-73.57,107.9-1.58,8.91-3.47,18.1-2.84,27,2.2,31.11,10.29,60.72,27.36,87.2,26,40.3,61.36,64.61,113,63.13a12.89,12.89,0,0,0,3.63.24c16-1.74,33.09-.74,47.9-6,32-11.34,59.69-29.77,77.94-59.79,9.61-15.82,21.17-31.43,22.72-50C860.2,162.21,866.32,133.83,859,104ZM835.1,188.52c-3.31,15.51-15.49,34.81-25.85,47.24-15.43,18.5-31.31,26.74-55.49,42.89-16.08,10.74-30.26,10.34-44,10.74-2.61.07-5.12,0-5.21,0-37.67-3.66-72.72-18.62-94.92-54.13-14.58-23.34-13.49-44.74-15.36-72.15-.54-7.85-1-18.54.32-26.39,7.12-41.33,14.18-74.28,59-95.95,28.64-13.85,56.08-23.52,87.62-18.07,19.61,3.39,39.26,9.16,54.64,23.07,19.85,17.95,38.56,29.21,43,63.66C843.46,139.65,840.4,163.62,835.1,188.52Z"/>
    </g>
  </g>
</svg>
